<svg width="424" height="242" viewBox="0 0 424 242" fill="none" xmlns="http://www.w3.org/2000/svg">
<g clip-path="url(#clip0_6001_323978)">
<rect width="424" height="242" rx="8" fill="#1C55F7"/>
<path d="M79.0944 123.5C46.832 98.0485 27.8948 98.184 -7.5 123.5V301.5H430V123.5C418.067 113.459 411.794 114.18 401.135 123.5L371.704 149.5C351.494 167.627 339.508 167.373 316.805 149.5L274.356 112C252.602 96.1256 241.051 96.5322 221.721 112L184.932 144.5C154.722 171.549 136.899 173.656 102.865 144.5L79.0944 123.5Z" fill="#204ECF" stroke="#0030B6" stroke-width="3"/>
<path d="M-7.5 129.5C27.8948 104.184 46.832 104.048 79.0944 129.5L102.865 150.5C136.899 179.656 154.722 177.549 184.932 150.5L221.721 118C241.051 102.532 252.602 102.126 274.356 118L316.805 155.5C339.508 173.373 351.494 173.627 371.704 155.5L401.135 129.5C411.794 120.18 418.067 119.459 430 129.5" stroke="black" stroke-opacity="0.1" stroke-width="4"/>
</g>
<defs>
<clipPath id="clip0_6001_323978">
<rect width="424" height="242" rx="8" fill="white"/>
</clipPath>
</defs>
</svg>
