<svg width="64" height="86" viewBox="0 0 64 86" fill="none" xmlns="http://www.w3.org/2000/svg">
<path opacity="0.3" d="M64 21.3333H45.3334C44.6261 21.3333 43.9478 21.0524 43.4477 20.5523C42.9476 20.0522 42.6667 19.3739 42.6667 18.6667V1.25638e-05H4.00001C3.47604 -0.0013023 2.95694 0.100601 2.47234 0.299903C1.98775 0.499205 1.54716 0.792004 1.17572 1.16158C0.804289 1.53116 0.509286 1.97028 0.307557 2.45386C0.105828 2.93745 0.00132414 3.45604 1.25638e-05 3.98001V81.3333C-0.0013023 81.8573 0.100601 82.3764 0.299903 82.861C0.499206 83.3456 0.792005 83.7862 1.16158 84.1576C1.53116 84.529 1.97028 84.824 2.45387 85.0258C2.93745 85.2275 3.45604 85.332 3.98001 85.3333H60C60.524 85.3346 61.0431 85.2327 61.5277 85.0334C62.0123 84.8341 62.4529 84.5413 62.8243 84.1717C63.1958 83.8022 63.4908 83.3631 63.6925 82.8795C63.8942 82.3959 63.9987 81.8773 64 81.3533V21.3333ZM18.7567 29.3333C20.3389 29.3333 21.8857 29.8025 23.2012 30.6816C24.5168 31.5606 25.5422 32.8101 26.1477 34.2719C26.7532 35.7337 26.9117 37.3422 26.603 38.8941C26.2943 40.4459 25.5324 41.8714 24.4135 42.9902C23.2947 44.109 21.8693 44.8709 20.3174 45.1796C18.7656 45.4883 17.157 45.3299 15.6952 44.7244C14.2334 44.1189 12.984 43.0935 12.1049 41.7779C11.2259 40.4623 10.7567 38.9156 10.7567 37.3333C10.7567 35.2116 11.5995 33.1768 13.0998 31.6765C14.6001 30.1762 16.635 29.3333 18.7567 29.3333ZM53.4234 69.3333H10.7567L10.8333 61.2533L17.4184 54.6667C18.2 53.885 19.385 53.9667 20.1667 54.7467L26.7567 61.3333L44 44.08C44.1858 43.8935 44.4066 43.7456 44.6497 43.6447C44.8928 43.5437 45.1535 43.4918 45.4167 43.4918C45.6799 43.4918 45.9406 43.5437 46.1837 43.6447C46.4268 43.7456 46.6475 43.8935 46.8334 44.08L53.4234 50.6667V69.3333Z" fill="#00A3FF"/>
</svg>
